HIERARCHY
ROOT Hips
{
  OFFSET 5.72205e-005 65.662 3.42586
  CHANNELS 6 Xposition Yposition Zposition Zrotation Xrotation Yrotation
  JOINT Chest
  {
    OFFSET 0 8.7983 -4.7612
    CHANNELS 3 Zrotation Xrotation Yrotation
    JOINT Chest2
    {
      OFFSET 0 8.0291 0.4195
      CHANNELS 3 Zrotation Xrotation Yrotation
      JOINT Chest3
      {
        OFFSET 0 9.9351 -2.2114
        CHANNELS 3 Zrotation Xrotation Yrotation
        JOINT Neck
        {
          OFFSET 0 22.3885 -0.4656
          CHANNELS 3 Zrotation Xrotation Yrotation
          JOINT Head
          {
            OFFSET -0.0001 12.643 3.4389
            CHANNELS 3 Zrotation Xrotation Yrotation
            End Site
            {
              OFFSET 0.0001 17.6655 0.5274
            }
          }
        }
        JOINT LeftCollar
        {
          OFFSET 2.2603 21.606 7.4023
          CHANNELS 3 Zrotation Xrotation Yrotation
          JOINT LeftShoulder
          {
            OFFSET 13.5163 -1.1332 -5.0146
            CHANNELS 3 Zrotation Xrotation Yrotation
            JOINT LeftElbow
            {
              OFFSET -0.0995 -28.05 -0.2431
              CHANNELS 3 Zrotation Xrotation Yrotation
              JOINT LeftWrist
              {
                OFFSET 0.0679 -23.3996 -0.1402
                CHANNELS 3 Zrotation Xrotation Yrotation
                JOINT LeftFinger1
                {
                  OFFSET 0.7932 -9.069 2.5189
                  CHANNELS 3 Zrotation Xrotation Yrotation
                  JOINT LeftFinger11
                  {
                    OFFSET -0.8272 -3.3923 0.5977
                    CHANNELS 3 Zrotation Xrotation Yrotation
                    JOINT LeftFinger12
                    {
                      OFFSET -0.5649 -2.3158 0.4082
                      CHANNELS 3 Zrotation Xrotation Yrotation
                      End Site
                      {
                        OFFSET -0.4919 -1.6479 0.2673
                      }
                    }
                  }
                }
                JOINT LeftFinger2
                {
                  OFFSET 0.9159 -9.2044 0.2193
                  CHANNELS 3 Zrotation Xrotation Yrotation
                  JOINT LeftFinger21
                  {
                    OFFSET 0.0117 -4.1944 -0.0248
                    CHANNELS 3 Zrotation Xrotation Yrotation
                    JOINT LeftFinger22
                    {
                      OFFSET 0.0071 -2.3249 -0.0142
                      CHANNELS 3 Zrotation Xrotation Yrotation
                      End Site
                      {
                        OFFSET -0.1475 -2.0882 0.0028
                      }
                    }
                  }
                }
                JOINT LeftFinger3
                {
                  OFFSET 0.6113 -8.7231 -2.0637
                  CHANNELS 3 Zrotation Xrotation Yrotation
                  JOINT LeftFinger31
                  {
                    OFFSET -0.1927 -3.8059 -0.2383
                    CHANNELS 3 Zrotation Xrotation Yrotation
                    JOINT LeftFinger32
                    {
                      OFFSET -0.1091 -2.1688 -0.1362
                      CHANNELS 3 Zrotation Xrotation Yrotation
                      End Site
                      {
                        OFFSET -0.2358 -1.9176 -0.0906
                      }
                    }
                  }
                }
                JOINT LeftFinger4
                {
                  OFFSET -0.6151 -8.0947 -3.5641
                  CHANNELS 3 Zrotation Xrotation Yrotation
                  JOINT LeftFinger41
                  {
                    OFFSET -0.4882 -2.341 -0.6462
                    CHANNELS 3 Zrotation Xrotation Yrotation
                    JOINT LeftFinger42
                    {
                      OFFSET -0.3575 -1.7167 -0.4742
                      CHANNELS 3 Zrotation Xrotation Yrotation
                      End Site
                      {
                        OFFSET -0.4187 -1.5237 -0.3496
                      }
                    }
                  }
                }
                JOINT LeftFinger0
                {
                  OFFSET -1.42 -1.8761 1.4223
                  CHANNELS 3 Zrotation Xrotation Yrotation
                  JOINT LeftFinger01
                  {
                    OFFSET -1.1471 -3.4929 2.6334
                    CHANNELS 3 Zrotation Xrotation Yrotation
                    JOINT LeftFinger02
                    {
                      OFFSET -0.823 -2.3 1.6571
                      CHANNELS 3 Zrotation Xrotation Yrotation
                      End Site
                      {
                        OFFSET -0.5822 -1.6914 1.1582
                      }
                    }
                  }
                }
              }
            }
          }
        }
        JOINT RightCollar
        {
          OFFSET -2.2603 21.606 7.4023
          CHANNELS 3 Zrotation Xrotation Yrotation
          JOINT RightShoulder
          {
            OFFSET -13.5187 -1.1334 -5.0155
            CHANNELS 3 Zrotation Xrotation Yrotation
            JOINT RightElbow
            {
              OFFSET 0.0994 -28.0499 -0.2431
              CHANNELS 3 Zrotation Xrotation Yrotation
              JOINT RightWrist
              {
                OFFSET -0.0679 -23.3996 -0.1402
                CHANNELS 3 Zrotation Xrotation Yrotation
                JOINT RightFinger1
                {
                  OFFSET -0.7932 -9.0691 2.5189
                  CHANNELS 3 Zrotation Xrotation Yrotation
                  JOINT RightFinger11
                  {
                    OFFSET 0.8272 -3.3923 0.5977
                    CHANNELS 3 Zrotation Xrotation Yrotation
                    JOINT RightFinger12
                    {
                      OFFSET 0.565 -2.3158 0.4082
                      CHANNELS 3 Zrotation Xrotation Yrotation
                      End Site
                      {
                        OFFSET 0.4919 -1.6479 0.2673
                      }
                    }
                  }
                }
                JOINT RightFinger2
                {
                  OFFSET -0.916 -9.2044 0.2193
                  CHANNELS 3 Zrotation Xrotation Yrotation
                  JOINT RightFinger21
                  {
                    OFFSET -0.0117 -4.1944 -0.0248
                    CHANNELS 3 Zrotation Xrotation Yrotation
                    JOINT RightFinger22
                    {
                      OFFSET -0.0071 -2.3249 -0.0142
                      CHANNELS 3 Zrotation Xrotation Yrotation
                      End Site
                      {
                        OFFSET 0.1475 -2.0882 0.0028
                      }
                    }
                  }
                }
                JOINT RightFinger3
                {
                  OFFSET -0.6113 -8.7231 -2.0637
                  CHANNELS 3 Zrotation Xrotation Yrotation
                  JOINT RightFinger31
                  {
                    OFFSET 0.1927 -3.8059 -0.2383
                    CHANNELS 3 Zrotation Xrotation Yrotation
                    JOINT RightFinger32
                    {
                      OFFSET 0.1091 -2.1688 -0.1362
                      CHANNELS 3 Zrotation Xrotation Yrotation
                      End Site
                      {
                        OFFSET 0.2358 -1.9176 -0.0906
                      }
                    }
                  }
                }
                JOINT RightFinger4
                {
                  OFFSET 0.6151 -8.0947 -3.564
                  CHANNELS 3 Zrotation Xrotation Yrotation
                  JOINT RightFinger41
                  {
                    OFFSET 0.4882 -2.341 -0.6462
                    CHANNELS 3 Zrotation Xrotation Yrotation
                    JOINT RightFinger42
                    {
                      OFFSET 0.3574 -1.7166 -0.4742
                      CHANNELS 3 Zrotation Xrotation Yrotation
                      End Site
                      {
                        OFFSET 0.4187 -1.5237 -0.3496
                      }
                    }
                  }
                }
                JOINT RightFinger0
                {
                  OFFSET 1.4199 -1.8761 1.4221
                  CHANNELS 3 Zrotation Xrotation Yrotation
                  JOINT RightFinger01
                  {
                    OFFSET 1.1472 -3.4929 2.6336
                    CHANNELS 3 Zrotation Xrotation Yrotation
                    JOINT RightFinger02
                    {
                      OFFSET 0.8229 -2.3 1.6571
                      CHANNELS 3 Zrotation Xrotation Yrotation
                      End Site
                      {
                        OFFSET 0.5822 -1.6914 1.1582
                      }
                    }
                  }
                }
              }
            }
          }
        }
      }
    }
  }
  JOINT RightHip
  {
    OFFSET -9.412 3.9771 -0.7758
    CHANNELS 3 Zrotation Xrotation Yrotation
    JOINT RightKnee
    {
      OFFSET -0.7531 -40.938 0
      CHANNELS 3 Zrotation Xrotation Yrotation
      JOINT RightAnkle
      {
        OFFSET 0 -40.1986 0
        CHANNELS 3 Zrotation Xrotation Yrotation
        JOINT RightToe
        {
          OFFSET 0 -4.4182 9.239
          CHANNELS 3 Zrotation Xrotation Yrotation
          End Site
          {
            OFFSET 0 0 6.1981
          }
        }
      }
    }
  }
  JOINT LeftHip
  {
    OFFSET 9.4119 3.9773 -0.7758
    CHANNELS 3 Zrotation Xrotation Yrotation
    JOINT LeftKnee
    {
      OFFSET 0.7532 -40.9383 0
      CHANNELS 3 Zrotation Xrotation Yrotation
      JOINT LeftAnkle
      {
        OFFSET 0 -40.1986 0
        CHANNELS 3 Zrotation Xrotation Yrotation
        JOINT LeftToe
        {
          OFFSET 0 -4.4182 9.239
          CHANNELS 3 Zrotation Xrotation Yrotation
          End Site
          {
            OFFSET 0 0 6.1981
          }
        }
      }
    }
  }
}
MOTION
Frames:	4
Frame Time:	0.0333333
5.72205e-005 65.662 3.42586 0 0 -0 0 0 -0 0 0 -0 0 0 -0 0 0 -0 0 0 -0 0 0 -12.5014 88.1196 14.2451 10.6914 -0.00160068 -0.00239207 0.000740045 -8.4365e-005 7.00714e-005 -9.52055e-007 9.93923e-017 -1.98785e-016 -1.59028e-015 9.93923e-017 -5.96354e-016 -1.59028e-015 -9.93923e-017 -5.96354e-016 -1.59028e-015 9.93923e-017 -1.98785e-016 -1.59028e-015 -0.0128176 0.00232552 8.52707e-005 9.93923e-017 5.96354e-016 -0 9.93923e-017 -1.98785e-016 -1.59028e-015 -0.0160551 0.00299681 0.000857156 -2.48481e-016 0 3.18055e-015 9.93923e-017 -1.98785e-016 -1.59028e-015 -0.0125865 0.0031206 0.00282719 0 1.98785e-016 -0 9.93923e-017 -1.98785e-016 -1.59028e-015 9.93923e-017 -5.96354e-016 -1.59028e-015 -9.93923e-017 -5.96354e-016 -1.59028e-015 -0.865644 0.16582 7.03859 -88.0329 10.2057 -10.5567 0.0015593 -0.00248883 -0.000788628 7.87605e-005 4.10553e-005 1.24965e-005 -3.97569e-016 -7.95139e-016 3.18055e-015 -1.98785e-016 -3.97569e-016 3.18055e-015 -1.98785e-016 0 3.18055e-015 -3.97569e-016 -7.95139e-016 3.18055e-015 0.0129473 0.00231697 -8.70038e-005 9.93923e-017 -7.95139e-016 1.59028e-015 -3.97569e-016 -7.95139e-016 3.18055e-015 0.0163314 0.00303369 -0.000872333 3.97569e-016 7.95139e-016 -3.18055e-015 -3.97569e-016 -7.95139e-016 3.18055e-015 0.0145763 0.00367772 -0.00326275 9.93923e-017 -3.97569e-016 -0 -3.97569e-016 -7.95139e-016 3.18055e-015 -1.98785e-016 -3.97569e-016 3.18055e-015 -1.98785e-016 0 3.18055e-015 3.42482 1.32465 -0.0626183 0.000117508 0.717283 0.000978199 -3.4257 -2.04197 -0.0604716 6.47761e-025 0 -0 -3.42483 1.34017 0.0627307 -0.000193936 0.682302 -0.0013703 3.42574 -2.02253 0.0595886 -8.45714e-024 0 -7.40531e-025 
-0.0061402 32.1656 6.5605 -4.95487e-008 -13.644 8.52301e-009 1.05556 5.31286 2.80636 1.85944 10.6705 5.54982 1.85944 10.6705 5.54983 -0.0209018 -0.27968 0.251543 -0.849016 -5.4713 9.87479 -9.66159e-006 -3.68379e-005 -12.5014 94.6583 -11.889 19.7046 -1.32846 -7.22338 -0.317254 -0.000217139 0.000108403 0.00446973 2.83194e-007 3.2231e-006 -1.88373e-006 -1.31701e-007 1.04849e-009 -4.04043e-007 5.26804e-007 1.6031e-006 1.61617e-006 2.83194e-007 3.2231e-006 -1.88373e-006 -0.0127524 0.00231511 8.84018e-005 -9.66195e-006 3.29102e-006 4.29948e-006 2.83194e-007 3.2231e-006 -1.88373e-006 -0.0159651 0.00297671 0.00085622 6.07516e-007 1.5724e-006 -2.00638e-007 2.83194e-007 3.2231e-006 -1.88373e-006 -0.0125647 0.00311252 0.00282352 1.07638e-005 9.86081e-007 1.36809e-006 2.83194e-007 3.2231e-006 -1.88373e-006 -1.31701e-007 1.04849e-009 -4.04043e-007 5.26804e-007 1.6031e-006 1.61617e-006 -0.865653 0.165784 7.03857 -95.5777 -10.0579 -22.1152 14.836 -61.2964 5.88937 -3.84591e-005 -0.000310632 -9.41589e-006 -1.00635e-015 -3.18055e-015 -1.45237e-014 -7.76503e-016 -3.18055e-015 -1.61513e-014 -1.57785e-015 -7.95139e-016 -1.77586e-014 -1.00635e-015 -3.18055e-015 -1.45237e-014 0.0129516 0.00231877 -9.35616e-005 -3.35449e-016 1.59028e-015 -6.19106e-015 -1.00635e-015 -3.18055e-015 -1.45237e-014 0.0163172 0.00303032 -0.000878262 -1.30452e-016 0 -2.39163e-016 -1.00635e-015 -3.18055e-015 -1.45237e-014 0.0146848 0.00371173 -0.00327942 -1.61513e-016 7.95139e-016 -1.59494e-015 -1.00635e-015 -3.18055e-015 -1.45237e-014 -7.76503e-016 -3.18055e-015 -1.61513e-014 -1.57785e-015 -7.95139e-016 -1.77586e-014 -2.55761 -56.9533 -11.3819 0.0308495 72.6629 -1.50924 -3.45423 -5.59496 -1.15525 -4.24779e-007 -5.33858e-008 2.26874e-008 -6.25744 -55.9503 -2.78813 -0.0330693 72.8577 1.51251 3.45224 -5.82662 1.16313 -5.08349e-014 0 2.34398e-015 
-0.132329 5.15455 8.50678 2.57201e-008 -25.0231 -1.64687e-006 0.967609 9.48275 5.489 1.01735 19.0142 11.046 1.01735 19.0142 11.046 -0.0485754 -0.557659 0.501194 -0.121175 -9.67003 18.2733 -4.12594e-005 -0.000281285 -12.5015 98.4182 -33.7975 26.3637 -2.48796 -13.2378 -0.71872 -0.000353648 -1.45124e-005 0.00837354 -2.48481e-016 3.18055e-015 1.98785e-016 -1.80992e-007 8.11702e-007 -1.89858e-006 1.98785e-016 3.18055e-015 -2.38542e-015 -2.48481e-016 3.18055e-015 1.98785e-016 -0.0127938 0.00232071 8.27558e-005 1.78805e-007 2.86964e-006 -2.12252e-006 -2.48481e-016 3.18055e-015 1.98785e-016 -0.0160194 0.0029889 0.000850818 6.95746e-016 0 5.96354e-016 -2.48481e-016 3.18055e-015 1.98785e-016 -0.0124972 0.0030958 0.00280678 8.44835e-016 -3.18055e-015 -2.98177e-016 -2.48481e-016 3.18055e-015 1.98785e-016 -1.80992e-007 8.11702e-007 -1.89858e-006 1.98785e-016 3.18055e-015 -2.38542e-015 -0.865683 0.165543 7.03842 -101.082 -27.1393 -31.169 146.885 -61.609 132.631 -0.000303407 -7.85573e-006 -1.69161e-005 1.98785e-016 0 -3.18055e-015 -3.97569e-016 -7.95139e-016 -3.18055e-015 9.93923e-017 -3.97569e-016 -0 1.98785e-016 0 -3.18055e-015 0.0129389 0.00231434 -8.68605e-005 2.50347e-008 1.90347e-007 4.77904e-007 1.98785e-016 0 -3.18055e-015 0.016304 0.00303005 -0.000870896 -3.97569e-016 7.95139e-016 1.59028e-014 1.98785e-016 0 -3.18055e-015 0.0145368 0.00366909 -0.00325316 2.98177e-016 2.54444e-014 -3.18055e-015 1.98785e-016 0 -3.18055e-015 -3.97569e-016 -7.95139e-016 -3.18055e-015 9.93923e-017 -3.97569e-016 -0 -134.465 -73.9747 -145.136 179.942 49.3659 175.724 -3.38199 -10.1295 -3.1798 8.3512e-007 -2.46746e-007 -6.96362e-008 -159.709 -78.8613 -153.051 -179.937 49.0602 -175.704 3.38973 -10.5462 3.20855 -1.65879e-022 7.95139e-016 -0 
-0.183056 -1.48597 8.85423 -6.97334e-007 -27.8736 -3.95207e-007 0.79333 10.4773 6.20594 0.417613 20.978 12.5869 0.417614 20.978 12.5869 -0.108252 -0.82829 0.744263 0.246344 -10.5948 20.3133 -5.38871e-005 -0.000410876 -12.5016 98.9639 -39.285 27.7208 -2.78926 -14.7437 -0.840514 -0.000317638 -0.000216717 0.00999691 1.1645e-006 7.07252e-006 -3.05365e-006 -5.96354e-016 -9.54166e-015 -0 1.39149e-015 -6.36111e-015 5.96354e-016 1.1645e-006 7.07252e-006 -3.05365e-006 -0.012818 0.00232374 8.63581e-005 1.98785e-016 3.18055e-015 9.93923e-016 1.1645e-006 7.07252e-006 -3.05365e-006 -0.0160767 0.00299594 0.000866147 1.149e-005 1.14381e-006 -6.43963e-006 1.1645e-006 7.07252e-006 -3.05365e-006 -0.0126258 0.00312668 0.00283795 -1.78906e-015 -1.59028e-014 -1.59028e-015 1.1645e-006 7.07252e-006 -3.05365e-006 -5.96354e-016 -9.54166e-015 -0 1.39149e-015 -6.36111e-015 5.96354e-016 -0.865697 0.165401 7.03833 -102.293 -31.4377 -33.2925 153.676 -49.1716 138.137 -0.000768409 3.84454e-005 -3.9845e-005 -5.29669e-031 3.18055e-015 9.54166e-015 -5.27951e-007 1.44377e-007 -1.51998e-006 -7.95139e-016 3.18055e-015 -3.18055e-015 -5.29669e-031 3.18055e-015 9.54166e-015 0.0129064 0.00230721 -8.26053e-005 7.95139e-016 -1.74118e-006 -3.18055e-015 -5.29669e-031 3.18055e-015 9.54166e-015 0.0163464 0.00303869 -0.000872932 -7.95139e-016 0 -0 -5.29669e-031 3.18055e-015 9.54166e-015 0.0145719 0.00367997 -0.0032561 1.76556e-031 -3.18055e-015 3.18055e-015 -5.29669e-031 3.18055e-015 9.54166e-015 -5.27951e-007 1.44377e-007 -1.51998e-006 -7.95139e-016 3.18055e-015 -3.18055e-015 -147.108 -65.7645 -159.557 179.901 34.9464 173.821 -3.32843 -13.2313 -4.54403 -7.95139e-016 -3.18055e-015 -0 -167.305 -70.0215 -157.943 -179.894 34.6379 -173.767 3.34414 -13.7365 4.5983 4.05309e-013 -7.95139e-016 -3.82645e-014 
